{
  "accessors": [
    {
      "bufferView": 2,
      "componentType": 5126,
      "count": 65532,
      "max": [
        62.57194900512695,
        88.72016906738281,
        15.717079162597656
      ],
      "min": [
        -84.78665161132813,
        -58.85575866699219,
        -20.333539962768555
      ],
      "type": "VEC3"
    },
    {
      "bufferView": 2,
      "byteOffset": 786384,
      "componentType": 5126,
      "count": 65532,
      "max": [
        0.9999989867210388,
        0.9999270439147949,
        0.9999964237213135
      ],
      "min": [
        -0.9999886155128479,
        -0.9999598860740662,
        -0.999901294708252
      ],
      "type": "VEC3"
    },
    {
      "bufferView": 1,
      "componentType": 5126,
      "count": 65532,
      "max": [
        1.0,
        0.9953680038452148
      ],
      "min": [
        0.0,
        6.500000017695129e-05
      ],
      "type": "VEC2"
    },
    {
      "bufferView": 0,
      "componentType": 5125,
      "count": 332229,
      "type": "SCALAR"
    },
    {
      "bufferView": 2,
      "byteOffset": 1572768,
      "componentType": 5126,
      "count": 65532,
      "max": [
        36.345523834228516,
        107.39566802978516,
        28.732275009155273
      ],
      "min": [
        -107.36895751953125,
        -42.19773864746094,
        -17.403762817382813
      ],
      "type": "VEC3"
    },
    {
      "bufferView": 2,
      "byteOffset": 2359152,
      "componentType": 5126,
      "count": 65532,
      "max": [
        0.9999461770057678,
        0.9998858571052551,
        0.9999929666519165
      ],
      "min": [
        -0.9997906684875488,
        -0.9999953508377075,
        -0.9999882578849792
      ],
      "type": "VEC3"
    },
    {
      "bufferView": 1,
      "byteOffset": 524256,
      "componentType": 5126,
      "count": 65532,
      "max": [
        0.9999840259552002,
        0.9955189824104309
      ],
      "min": [
        0.0,
        0.0023610000498592854
      ],
      "type": "VEC2"
    },
    {
      "bufferView": 0,
      "byteOffset": 1328916,
      "componentType": 5125,
      "count": 328623,
      "type": "SCALAR"
    },
    {
      "bufferView": 2,
      "byteOffset": 3145536,
      "componentType": 5126,
      "count": 65532,
      "max": [
        48.93941116333008,
        114.97563171386719,
        28.6411190032959
      ],
      "min": [
        -120.88993835449219,
        -44.10565948486328,
        -18.881803512573242
      ],
      "type": "VEC3"
    },
    {
      "bufferView": 2,
      "byteOffset": 3931920,
      "componentType": 5126,
      "count": 65532,
      "max": [
        0.9999979138374329,
        0.9993131756782532,
        0.9999993443489075
      ],
      "min": [
        -0.9999361634254456,
        -0.9999467134475708,
        -0.999904453754425
      ],
      "type": "VEC3"
    },
    {
      "bufferView": 1,
      "byteOffset": 1048512,
      "componentType": 5126,
      "count": 65532,
      "max": [
        1.0,
        0.9960759878158569
      ],
      "min": [
        0.0,
        0.0
      ],
      "type": "VEC2"
    },
    {
      "bufferView": 0,
      "byteOffset": 2643408,
      "componentType": 5125,
      "count": 304551,
      "type": "SCALAR"
    },
    {
      "bufferView": 2,
      "byteOffset": 4718304,
      "componentType": 5126,
      "count": 22499,
      "max": [
        60.47590255737305,
        41.83034133911133,
        12.676203727722168
      ],
      "min": [
        -75.86080932617188,
        -57.00279998779297,
        -20.333539962768555
      ],
      "type": "VEC3"
    },
    {
      "bufferView": 2,
      "byteOffset": 4988292,
      "componentType": 5126,
      "count": 22499,
      "max": [
        0.9997005462646484,
        0.9995144009590149,
        0.9998983144760132
      ],
      "min": [
        -0.9997671246528625,
        -0.9999598860740662,
        -0.9998888373374939
      ],
      "type": "VEC3"
    },
    {
      "bufferView": 1,
      "byteOffset": 1572768,
      "componentType": 5126,
      "count": 22499,
      "max": [
        1.0,
        0.9959909915924072
      ],
      "min": [
        0.0,
        0.0008999999845400453
      ],
      "type": "VEC2"
    },
    {
      "bufferView": 0,
      "byteOffset": 3861612,
      "componentType": 5125,
      "count": 89022,
      "type": "SCALAR"
    }
  ],
  "asset": {
    "extras": {
      "author": "Sircher (https://sketchfab.com/Sircher)",
      "license": "CC-BY-4.0 (http://creativecommons.org/licenses/by/4.0/)",
      "source": "https://sketchfab.com/3d-models/collapsed-building-drone-3d-scan-f1c8bb38127445b9997928c06a60c8b8",
      "title": "Collapsed Building - Drone 3d scan"
    },
    "generator": "Sketchfab-12.66.0",
    "version": "2.0"
  },
  "bufferViews": [
    {
      "buffer": 0,
      "byteLength": 4217700,
      "name": "floatBufferViews",
      "target": 34963
    },
    {
      "buffer": 0,
      "byteLength": 1752760,
      "byteOffset": 4217700,
      "byteStride": 8,
      "name": "floatBufferViews",
      "target": 34962
    },
    {
      "buffer": 0,
      "byteLength": 5258280,
      "byteOffset": 5970460,
      "byteStride": 12,
      "name": "floatBufferViews",
      "target": 34962
    }
  ],
  "buffers": [
    {
      "byteLength": 11228740,
      "uri": "scene.bin"
    }
  ],
  "images": [
    {
      "uri": "textures/mallA_baseColor.jpeg"
    }
  ],
  "materials": [
    {
      "doubleSided": true,
      "name": "mallA",
      "pbrMetallicRoughness": {
        "baseColorTexture": {
          "index": 0
        },
        "metallicFactor": 0.0
      }
    }
  ],
  "meshes": [
    {
      "name": "Object_0",
      "primitives": [
        {
          "attributes": {
            "NORMAL": 1,
            "POSITION": 0,
            "TEXCOORD_0": 2
          },
          "indices": 3,
          "material": 0,
          "mode": 4
        }
      ]
    },
    {
      "name": "Object_1",
      "primitives": [
        {
          "attributes": {
            "NORMAL": 5,
            "POSITION": 4,
            "TEXCOORD_0": 6
          },
          "indices": 7,
          "material": 0,
          "mode": 4
        }
      ]
    },
    {
      "name": "Object_2",
      "primitives": [
        {
          "attributes": {
            "NORMAL": 9,
            "POSITION": 8,
            "TEXCOORD_0": 10
          },
          "indices": 11,
          "material": 0,
          "mode": 4
        }
      ]
    },
    {
      "name": "Object_3",
      "primitives": [
        {
          "attributes": {
            "NORMAL": 13,
            "POSITION": 12,
            "TEXCOORD_0": 14
          },
          "indices": 15,
          "material": 0,
          "mode": 4
        }
      ]
    }
  ],
  "nodes": [
    {
      "children": [
        1
      ],
      "matrix": [
        0.9044808745384216,
        -0.008355646394193268,
        0.4264322817325592,
        0.0,
        0.41750818490982056,
        -0.18702854216098766,
        -0.88921719789505,
        0.0,
        0.08718499541282654,
        0.9823189377784729,
        -0.16567519307136513,
        0.0,
        -14.866645812988281,
        5.078622817993161,
        10.021556854248049,
        1.0
      ],
      "name": "Sketchfab_model"
    },
    {
      "children": [
        2,
        3,
        4,
        5
      ],
      "name": "mallA.obj.cleaner.materialmerger.gles"
    },
    {
      "mesh": 0,
      "name": "Object_2"
    },
    {
      "mesh": 1,
      "name": "Object_3"
    },
    {
      "mesh": 2,
      "name": "Object_4"
    },
    {
      "mesh": 3,
      "name": "Object_5"
    }
  ],
  "samplers": [
    {
      "magFilter": 9729,
      "minFilter": 9987,
      "wrapS": 10497,
      "wrapT": 10497
    }
  ],
  "scene": 0,
  "scenes": [
    {
      "name": "Sketchfab_Scene",
      "nodes": [
        0
      ]
    }
  ],
  "textures": [
    {
      "sampler": 0,
      "source": 0
    }
  ]
}
